<svg width="50" height="50" viewBox="0 0 50 50" fill="none" xmlns="http://www.w3.org/2000/svg">
<path d="M32.5002 25C32.5002 26.9891 31.71 28.8968 30.3035 30.3033C28.8969 31.7098 26.9893 32.5 25.0002 32.5C23.011 32.5 21.1034 31.7098 19.6969 30.3033C18.2903 28.8968 17.5002 26.9891 17.5002 25C17.5002 24.5725 17.5452 24.155 17.6227 23.75H15.0002V33.7425C15.0002 34.4375 15.5627 35 16.2577 35H33.7452C34.0782 34.9993 34.3974 34.8666 34.6327 34.6308C34.868 34.395 35.0002 34.0756 35.0002 33.7425V23.75H32.3777C32.4552 24.155 32.5002 24.5725 32.5002 25V25ZM25.0002 30C25.6569 29.9998 26.3072 29.8703 26.914 29.6188C27.5207 29.3673 28.0719 28.9988 28.5362 28.5343C29.0005 28.0698 29.3688 27.5183 29.6199 26.9115C29.8711 26.3046 30.0003 25.6543 30.0002 24.9975C30 24.3407 29.8705 23.6904 29.619 23.0837C29.3675 22.477 28.999 21.9257 28.5344 21.4614C28.0699 20.9972 27.5185 20.6289 26.9116 20.3777C26.3048 20.1265 25.6544 19.9973 24.9977 19.9975C23.6712 19.9978 22.3993 20.5251 21.4616 21.4632C20.5239 22.4014 19.9973 23.6736 19.9977 25C19.998 26.3264 20.5252 27.5984 21.4634 28.5361C22.4015 29.4737 23.6737 30.0003 25.0002 30V30ZM31.0002 19.75H33.9977C34.1968 19.75 34.3878 19.6711 34.5289 19.5305C34.6699 19.3899 34.7495 19.1991 34.7502 19V16.0025C34.7502 15.8029 34.6709 15.6115 34.5298 15.4704C34.3886 15.3293 34.1972 15.25 33.9977 15.25H31.0002C30.8006 15.25 30.6092 15.3293 30.4681 15.4704C30.3269 15.6115 30.2477 15.8029 30.2477 16.0025V19C30.2502 19.4125 30.5877 19.75 31.0002 19.75V19.75ZM25.0002 1C18.635 1 12.5305 3.52856 8.02959 8.02944C3.52872 12.5303 1.00015 18.6348 1.00015 25C1.00015 31.3652 3.52872 37.4697 8.02959 41.9706C12.5305 46.4714 18.635 49 25.0002 49C28.1519 49 31.2727 48.3792 34.1846 47.1731C37.0964 45.967 39.7421 44.1992 41.9707 41.9706C44.1993 39.742 45.9672 37.0962 47.1733 34.1844C48.3794 31.2726 49.0002 28.1517 49.0002 25C49.0002 21.8483 48.3794 18.7274 47.1733 15.8156C45.9672 12.9038 44.1993 10.258 41.9707 8.02944C39.7421 5.80083 37.0964 4.033 34.1846 2.82689C31.2727 1.62078 28.1519 1 25.0002 1V1ZM37.5002 34.7225C37.5002 36.25 36.2502 37.5 34.7227 37.5H15.2777C13.7502 37.5 12.5002 36.25 12.5002 34.7225V15.2775C12.5002 13.75 13.7502 12.5 15.2777 12.5H34.7227C36.2502 12.5 37.5002 13.75 37.5002 15.2775V34.7225V34.7225Z"
      fill="white"/>
</svg>
